<svg xmlns="http://www.w3.org/2000/svg" width="64" height="64" viewBox="0 0 64 64">
  <defs>
    <linearGradient id="g" x1="0%" y1="0%" x2="100%" y2="100%">
      <stop offset="0%" stop-color="#6366f1" />
      <stop offset="100%" stop-color="#06b6d4" />
    </linearGradient>
  </defs>
  <rect width="64" height="64" rx="16" fill="url(#g)" />
  <svg x="16" y="16" width="32" height="32" viewBox="0 0 24 24" fill="none" stroke="white" stroke-width="2" stroke-linecap="round" stroke-linejoin="round">
    <path d="M19 7V4a1 1 0 0 0-1-1H5a2 2 0 0 0 0 4h15a1 1 0 0 1 1 1v4h-3a2 2 0 0 0 0 4h3a8 8 0 0 1-9 7.96V22a2 2 0 0 1-2 2H5a2 2 0 0 1-2-2V7" />
    <path d="M22 12v4" />
    <path d="M20 14h2" />
  </svg>
</svg>
